<svg width="43" height="44" viewBox="0 0 43 44" fill="none" xmlns="http://www.w3.org/2000/svg">
<path d="M27.7708 25.6667H26.3554L25.8538 25.1717C27.6096 23.0817 28.6667 20.3683 28.6667 17.4167C28.6667 10.835 23.4529 5.5 17.0208 5.5C10.5888 5.5 5.375 10.835 5.375 17.4167C5.375 23.9983 10.5888 29.3333 17.0208 29.3333C19.9054 29.3333 22.5571 28.2517 24.5996 26.455L25.0833 26.9683V28.4167L34.0417 37.565L36.7113 34.8333L27.7708 25.6667ZM17.0208 25.6667C12.5596 25.6667 8.95833 21.9817 8.95833 17.4167C8.95833 12.8517 12.5596 9.16667 17.0208 9.16667C21.4821 9.16667 25.0833 12.8517 25.0833 17.4167C25.0833 21.9817 21.4821 25.6667 17.0208 25.6667Z" fill="black"/>
</svg>
