<svg width="71" height="84" viewBox="0 0 71 84" fill="none" xmlns="http://www.w3.org/2000/svg">
<path d="M69.7341 22.8473H20.8809L18.811 2.81891C18.7334 2.03495 18.4695 1.31881 18.0677 0.801285C17.6658 0.283755 17.1527 -0.000644677 16.6221 1.76374e-05H2.21988C1.9287 -0.00140309 1.6402 0.0830209 1.37092 0.248449C1.10163 0.413878 0.856859 0.657057 0.650629 0.964046C0.444399 1.27103 0.280769 1.6358 0.16912 2.03742C0.0574717 2.43904 0 2.86962 0 3.30448C0 3.73934 0.0574717 4.16992 0.16912 4.57154C0.280769 4.97316 0.444399 5.33792 0.650629 5.64491C0.856859 5.9519 1.10163 6.19508 1.37092 6.36051C1.6402 6.52594 1.9287 6.61036 2.21988 6.60894H14.7107L16.3842 22.8473L18.5096 43.456L19.1203 49.3781L21.2457 69.9986L22.3957 81.1084C22.4746 81.8914 22.7388 82.6063 23.1404 83.1234C23.5419 83.6406 24.0542 83.9257 24.5844 83.9273H55.3398C55.9277 83.9273 56.4915 83.5785 56.9072 82.9577C57.3229 82.3368 57.5564 81.4948 57.5564 80.6168C57.5564 79.7389 57.3229 78.8968 56.9072 78.276C56.4915 77.6552 55.9277 77.3064 55.3398 77.3064H26.4959L25.7424 69.9986H59.3686C59.6019 69.9982 59.8294 69.8898 60.0197 69.6883C60.2101 69.4868 60.3539 69.2021 60.4313 68.8734L65.039 49.3781L66.4428 43.4561L70.7887 25.0858C70.848 24.8332 70.866 24.5631 70.8413 24.298C70.8166 24.0329 70.75 23.7805 70.6468 23.5616C70.5437 23.3427 70.4071 23.1637 70.2484 23.0395C70.0896 22.9152 69.9133 22.8494 69.7341 22.8473ZM34.8944 64.0766H25.1317L23.6169 49.3781H34.8944V64.0766ZM34.8944 43.456H23.0062L21.4915 28.7693H34.8944V43.456ZM48.3766 64.0766H38.8598V49.3781H48.3766V64.0766ZM48.3766 43.456H38.8598V28.7693H48.3766V43.456ZM57.3621 64.0766H52.342V49.3781H60.8358L57.3621 64.0766ZM62.2396 43.456H52.342V28.7693H65.7132L62.2396 43.456Z" fill="black"/>
</svg>
